<svg xmlns="http://www.w3.org/2000/svg" width="256" height="256" fill="none" viewBox="0 0 256 256">
  <ellipse cx="28.15" cy="28.253" fill="#A2A2A2" rx="28.15" ry="28.253" transform="matrix(-1 0 0 1 122.624 130.158)"/>
  <path fill="#A2A2A2" stroke="#7E7E7E" stroke-width="4" d="M144.955 88.894v.22h8.511V78.557c0-2.92-1.013-5.37-3.092-7.457-2.078-2.086-4.516-3.1-7.419-3.1h-25.023c-2.903 0-5.34 1.014-7.419 3.1-2.079 2.087-3.092 4.536-3.092 7.457v10.557h8.511v-4.392c0-1.472 0-2.742.11-3.736.111-1.004.371-2.168 1.256-3.056.886-.89 2.049-1.15 3.052-1.263.991-.11 2.258-.11 3.724-.11h6.37v2-2h6.369c1.467 0 2.733 0 3.724.11 1.003.112 2.166.373 3.053 1.263.885.888 1.144 2.052 1.255 3.056.11.993.11 2.263.11 3.736v4.172Z"/>
  <path fill="#9B4E00" fill-rule="evenodd" d="M181.128 184.884c-.211.01-.424.015-.639.015h-59.345A37.616 37.616 0 0 0 131.421 159c0-20.805-16.804-37.671-37.534-37.671-10.092 0-19.255 3.998-26 10.502v-28.553c0-3.453 1.225-6.409 3.675-8.868 1.034-1.037 2.156-1.856 3.366-2.456 1.658-.822 3.481-1.232 5.47-1.232H180.49c3.44 0 6.386 1.229 8.836 3.688 2.45 2.46 3.675 5.415 3.675 8.868v69.064c0 2.509-.647 4.755-1.94 6.739-.264.406-.556.8-.874 1.184-.268.323-.555.638-.861.945-2.297 2.306-5.029 3.53-8.197 3.674Z" clip-rule="evenodd"/>
  <path fill="#804000" fill-rule="evenodd" d="M181.128 184.884c-.211.01-.424.015-.639.015h-59.345a37.707 37.707 0 0 0 7.855-12.557h51.49v-69.064H80.399v20.557a37.536 37.536 0 0 0-12.512 7.996v-28.553c0-3.453 1.225-6.409 3.675-8.868 1.034-1.037 2.156-1.856 3.366-2.456 1.658-.822 3.481-1.232 5.47-1.232H180.49c3.44 0 6.386 1.229 8.836 3.688 2.45 2.46 3.675 5.415 3.675 8.868v69.064c0 2.509-.647 4.755-1.94 6.739-.264.406-.556.8-.874 1.184-.268.323-.555.638-.861.945-2.297 2.306-5.029 3.53-8.197 3.674Z" clip-rule="evenodd"/>
  <path fill="#0543B8" d="m86.459 170.851-4.38-4.395 9.071-9.104v-18.365h6.256v20.876l-10.947 10.988ZM94.279 190c4.326 0 8.392-.824 12.198-2.472 3.805-1.648 7.115-3.885 9.931-6.71 2.815-2.826 5.043-6.148 6.685-9.967 1.642-3.82 2.463-7.901 2.463-12.243 0-4.343-.821-8.424-2.463-12.243-1.642-3.82-3.87-7.142-6.685-9.968-2.816-2.825-6.126-5.062-9.931-6.71-3.806-1.648-7.872-2.472-12.199-2.472s-8.393.824-12.198 2.472c-3.806 1.648-7.116 3.885-9.931 6.71-2.815 2.826-5.044 6.148-6.686 9.968-1.642 3.819-2.463 7.9-2.463 12.243 0 4.342.821 8.423 2.463 12.243 1.642 3.819 3.87 7.141 6.686 9.967 2.815 2.825 6.125 5.062 9.93 6.71 3.806 1.648 7.872 2.472 12.2 2.472Zm0-6.278c-6.934 0-12.838-2.446-17.712-7.338-4.874-4.892-7.311-10.818-7.311-17.776 0-6.959 2.437-12.884 7.31-17.776 4.875-4.892 10.779-7.338 17.712-7.338 6.934 0 12.837 2.446 17.711 7.338 4.875 4.892 7.312 10.817 7.312 17.776 0 6.958-2.437 12.884-7.312 17.776-4.874 4.892-10.777 7.338-17.71 7.338Z"/>
  <path fill="#A2A2A2" stroke="#7E7E7E" stroke-width="1.766" d="M95.35 88.073h-7.618v1.766h7.618zm78 0h-7.618v1.766h7.618z"/>
</svg>
